# xmcd
#
# Track frame offsets:
# 150
# 21867
# 39998
# 63662
# 77382
# 97518
# 115264
# 131941
# 152509
# 168597
# 186963
#
# Disc length: 2689 seconds
#
#
# Revision: 0
# Processed by: cddbd v1.5.1PL0 Copyright (c) Steve Scherf et al.
# Submitted via: FreeRIP 2.80 
#
DISCID=830a7f0b
DTITLE=Caffè Espresso - Caffè Espresso
DYEAR=2004
DGENRE=Blues
TTITLE0=Swing it up
TTITLE1=Round-trip boogie
TTITLE2=Must get it right
TTITLE3=Down to New Orleans
TTITLE4=Begone
TTITLE5=Whispers in the dark
TTITLE6=Last call
TTITLE7=Living the night
TTITLE8=Mr. Caliph
TTITLE9=Come back to me
TTITLE10=Too long
EXTD=
EXTT0=
EXTT1=
EXTT2=
EXTT3=
EXTT4=
EXTT5=
EXTT6=
EXTT7=
EXTT8=
EXTT9=
EXTT10=
PLAYORDER=
